<svg xmlns="http://www.w3.org/2000/svg" viewBox="0 0 512 512" role="img" aria-label="ChronIQ">
  <defs>
    <linearGradient id="bg" x1="76" x2="436" y1="56" y2="456" gradientUnits="userSpaceOnUse">
      <stop stop-color="#20201d"/>
      <stop offset="1" stop-color="#070807"/>
    </linearGradient>
    <linearGradient id="accent" x1="136" x2="390" y1="132" y2="382" gradientUnits="userSpaceOnUse">
      <stop stop-color="#1db954"/>
      <stop offset="0.52" stop-color="#47a66b"/>
      <stop offset="1" stop-color="#ef6f4d"/>
    </linearGradient>
    <filter id="shadow" x="52" y="54" width="408" height="408" color-interpolation-filters="sRGB" filterUnits="userSpaceOnUse">
      <feDropShadow dx="0" dy="20" stdDeviation="22" flood-color="#000" flood-opacity="0.38"/>
    </filter>
  </defs>
  <rect width="512" height="512" rx="112" fill="url(#bg)"/>
  <circle cx="256" cy="256" r="164" fill="none" stroke="#fffdfa" stroke-opacity="0.12" stroke-width="18"/>
  <g filter="url(#shadow)">
    <path d="M256 94a162 162 0 1 0 0 324 162 162 0 0 0 0-324Zm0 278a116 116 0 1 1 0-232 116 116 0 0 1 0 232Z" fill="url(#accent)"/>
    <path d="M256 139a117 117 0 0 1 117 117h-46a71 71 0 0 0-71-71v-46Z" fill="#fffdfa" fill-opacity="0.94"/>
    <path d="M256 213v57l52 35" fill="none" stroke="#fffdfa" stroke-linecap="round" stroke-linejoin="round" stroke-width="34"/>
  </g>
  <path d="M148 358h216" stroke="#fffdfa" stroke-linecap="round" stroke-opacity="0.2" stroke-width="18"/>
  <path d="M184 392h144" stroke="#fffdfa" stroke-linecap="round" stroke-opacity="0.16" stroke-width="18"/>
</svg>
